<?xml version="1.0" encoding="iso-8859-1"?>
<!-- Uploaded to: SVG Repo, www.svgrepo.com, Generator: SVG Repo Mixer Tools -->
<svg fill="#000000" height="800px" width="800px" version="1.1" id="Layer_1" xmlns="http://www.w3.org/2000/svg" xmlns:xlink="http://www.w3.org/1999/xlink" 
	 viewBox="0 0 512 512" xml:space="preserve">
<g>
	<g>
		<path d="M508.392,438.847L278.167,46.948c-4.673-7.955-12.96-12.706-22.167-12.706c-9.207,0-17.493,4.75-22.166,12.706
			L3.607,438.847c-4.758,8.099-4.811,17.8-0.146,25.953c4.644,8.114,12.985,12.958,22.313,12.958h460.452
			c9.328,0,17.669-4.844,22.313-12.958C513.205,456.646,513.15,446.944,508.392,438.847z M494.625,456.836
			c-0.842,1.469-3.345,4.89-8.4,4.89H25.774c-5.055,0-7.558-3.42-8.4-4.89c-1.774-3.1-1.754-6.791,0.056-9.87L247.655,55.068
			c2.542-4.327,6.683-4.795,8.344-4.795c1.662,0,5.802,0.467,8.344,4.795l230.226,391.897
			C496.38,450.046,496.4,453.735,494.625,456.836z"/>
	</g>
</g>
<g>
	<g>
		<path d="M303.844,158.171l-6.719-11.437c-2.242-3.817-7.155-5.092-10.971-2.851c-3.816,2.242-5.093,7.154-2.851,10.971
			l6.719,11.437c1.493,2.541,4.169,3.956,6.919,3.956c1.38,0,2.778-0.356,4.053-1.105
			C304.809,166.9,306.086,161.988,303.844,158.171z"/>
	</g>
</g>
<g>
	<g>
		<path d="M464.403,431.482L320.908,187.219c-2.243-3.817-7.155-5.094-10.971-2.851c-3.817,2.242-5.093,7.154-2.851,10.97
			l136.401,232.188H68.513l187.488-319.147l10.18,17.33c2.242,3.817,7.155,5.092,10.971,2.851c3.817-2.242,5.093-7.154,2.851-10.971
			l-17.092-29.094c-1.44-2.451-4.07-3.955-6.911-3.955c-2.842,0-5.472,1.505-6.911,3.955L47.596,431.482
			c-1.456,2.478-1.473,5.547-0.045,8.041c1.428,2.494,4.082,4.033,6.956,4.033h402.984c2.874,0,5.528-1.539,6.956-4.033
			C465.876,437.029,465.859,433.96,464.403,431.482z"/>
	</g>
</g>
<g>
	<g>
		<path d="M256.026,350.58c-13.848,0-25.115,11.266-25.115,25.115s11.266,25.115,25.115,25.115
			c13.848,0,25.115-11.266,25.115-25.115S269.875,350.58,256.026,350.58z M256.026,384.779c-5.009,0-9.084-4.075-9.084-9.084
			s4.075-9.084,9.084-9.084c5.009,0,9.084,4.075,9.084,9.084S261.035,384.779,256.026,384.779z"/>
	</g>
</g>
<g>
	<g>
		<path d="M281.14,213.251c0-4.427-3.588-8.015-8.014-8.015h-34.199c-2.225,0-4.35,0.924-5.866,2.553
			c-1.516,1.629-2.288,3.814-2.129,6.033l8.55,119.695c0.299,4.195,3.79,7.445,7.995,7.445h17.099c4.205,0,7.696-3.25,7.995-7.445
			l6.107-85.496c0.315-4.416-3.008-8.25-7.424-8.566c-4.404-0.312-8.25,3.008-8.566,7.424l-5.576,78.051h-2.173l-7.405-103.665
			h25.59C277.551,221.266,281.14,217.678,281.14,213.251z"/>
	</g>
</g>
</svg>