<svg width="29" height="21" viewBox="0 0 29 21" fill="none" xmlns="http://www.w3.org/2000/svg">
<path d="M27.9533 3.34168C27.6243 2.10098 26.6583 1.12596 25.4291 0.793845C23.2036 0.191284 14.2751 0.191284 14.2751 0.191284C14.2751 0.191284 5.34671 0.191284 3.12106 0.793845C1.89192 1.12596 0.92598 2.10098 0.596951 3.34168C1.78814e-07 5.58823 0 10.2782 0 10.2782C0 10.2782 1.78814e-07 14.9683 0.596951 17.2148C0.92598 18.4555 1.89192 19.4305 3.12106 19.7626C5.34671 20.3652 14.2751 20.3652 14.2751 20.3652C14.2751 20.3652 23.2036 20.3652 25.4291 19.7626C26.6583 19.4305 27.6243 18.4555 27.9533 17.2148C28.5503 14.9683 28.5503 10.2782 28.5503 10.2782C28.5503 10.2782 28.5479 5.58823 27.9533 3.34168Z" fill="#FF8A00"/>
<path d="M11.4179 14.6009L18.8351 10.2786L11.4179 5.9563V14.6009Z" fill="white"/>
</svg>
