<svg width="18" height="16" viewBox="0 0 18 16" fill="none" xmlns="http://www.w3.org/2000/svg">
<path fill-rule="evenodd" clip-rule="evenodd" d="M11.2117 11.057C8.62232 13.009 4.83196 12.8553 2.43158 10.5962C-0.14394 8.17214 -0.14394 4.24203 2.43158 1.81801C5.00709 -0.606005 9.18283 -0.606004 11.7584 1.81801C14.1587 4.07719 14.322 7.64459 12.248 10.0817L17.2853 14.8226C17.5715 15.092 17.5715 15.5287 17.2853 15.798C16.9991 16.0673 16.5352 16.0673 16.249 15.798L11.2117 11.057ZM3.46789 9.62081C1.4647 7.73546 1.4647 4.67871 3.46789 2.79336C5.47107 0.908016 8.71886 0.908016 10.722 2.79336C12.7238 4.67733 12.7252 7.73097 10.7265 9.61666C10.725 9.61802 10.7235 9.6194 10.722 9.62079C10.7206 9.62217 10.7191 9.62356 10.7176 9.62495C8.7141 11.5062 5.4696 11.5048 3.46789 9.62081Z" fill="black"/>
</svg>
