<svg width="17" height="16" viewBox="0 0 17 16" fill="none" xmlns="http://www.w3.org/2000/svg">
<g clip-path="url(#clip0_121_470)">
<path d="M5.69945 14.5001C11.7357 14.5001 15.0382 9.49786 15.0382 5.1613C15.0382 5.02068 15.0351 4.87693 15.0288 4.7363C15.6713 4.2717 16.2257 3.69623 16.666 3.03693C16.0677 3.30313 15.4324 3.47698 14.782 3.55255C15.4669 3.142 15.9797 2.49704 16.2254 1.73724C15.5811 2.1191 14.8764 2.38847 14.1416 2.5338C13.6466 2.00777 12.992 1.65947 12.2791 1.54276C11.5663 1.42605 10.8348 1.54743 10.1978 1.88813C9.56088 2.22882 9.05388 2.76986 8.75525 3.4276C8.45661 4.08534 8.38297 4.82314 8.5457 5.52693C7.24101 5.46145 5.96464 5.12253 4.79934 4.53213C3.63403 3.94172 2.60581 3.11302 1.78133 2.09974C1.36228 2.82222 1.23405 3.67716 1.4227 4.49079C1.61135 5.30442 2.10272 6.01569 2.79695 6.48005C2.27577 6.4635 1.766 6.32318 1.30977 6.07068V6.1113C1.3093 6.86949 1.57141 7.60445 2.05156 8.19124C2.5317 8.77803 3.20023 9.18044 3.94352 9.33005C3.46072 9.46215 2.954 9.48139 2.46258 9.3863C2.67232 10.0384 3.0804 10.6087 3.62986 11.0176C4.17933 11.4266 4.84276 11.6538 5.52758 11.6676C4.36497 12.5808 2.9288 13.0761 1.45039 13.0738C1.18821 13.0734 0.926282 13.0573 0.666016 13.0257C2.16792 13.9892 3.91504 14.501 5.69945 14.5001Z" fill="#6D6E76"/>
</g>
<defs>
<clipPath id="clip0_121_470">
<rect width="16" height="16" fill="white" transform="translate(0.666016)"/>
</clipPath>
</defs>
</svg>
